<svg width="41" height="41" viewBox="0 0 41 41" fill="none" xmlns="http://www.w3.org/2000/svg">
<g id="Button" clip-path="url(#clip0_405_1461)">
<path id="Vector" d="M20.3244 0.0117188C9.94218 0.0117188 10.5904 4.53216 10.5904 4.53216L10.602 9.21548H20.5096V10.6215H6.66681C6.66681 10.6215 0.0231934 9.86505 0.0231934 20.3827C0.0231934 30.9007 5.8219 30.5277 5.8219 30.5277H9.28255V25.647C9.28255 25.647 9.09599 19.825 14.9887 19.825H24.8153C24.8153 19.825 30.3361 19.9145 30.3361 14.4678V5.46198C30.3361 5.46198 31.1746 0.0117188 20.3244 0.0117188ZM14.8614 3.16116C15.0955 3.16094 15.3274 3.20709 15.5437 3.29695C15.7601 3.3868 15.9566 3.51861 16.1222 3.68482C16.2877 3.85104 16.419 4.0484 16.5085 4.26561C16.598 4.48282 16.644 4.71562 16.6438 4.95068C16.644 5.18575 16.598 5.41854 16.5085 5.63576C16.419 5.85297 16.2877 6.05033 16.1222 6.21654C15.9566 6.38276 15.7601 6.51456 15.5437 6.60442C15.3274 6.69428 15.0955 6.74042 14.8614 6.74021C14.6273 6.74042 14.3954 6.69428 14.1791 6.60442C13.9627 6.51456 13.7661 6.38276 13.6006 6.21654C13.435 6.05033 13.3038 5.85297 13.2143 5.63576C13.1248 5.41854 13.0788 5.18575 13.079 4.95068C13.0788 4.71562 13.1248 4.48282 13.2143 4.26561C13.3038 4.0484 13.435 3.85104 13.6006 3.68482C13.7661 3.51861 13.9627 3.3868 14.1791 3.29695C14.3954 3.20709 14.6273 3.16094 14.8614 3.16116Z" fill="url(#paint0_linear_405_1461)"/>
<path id="Vector_2" d="M20.6194 40.8595C31.0017 40.8595 30.3534 36.3391 30.3534 36.3391L30.3419 31.6559H20.4341V30.2499H34.2769C34.2769 30.2499 40.9205 31.0063 40.9205 20.4883C40.9205 9.97041 35.1218 10.3434 35.1218 10.3434H31.6611V15.224C31.6611 15.224 31.8477 21.0461 25.955 21.0461H16.1284C16.1284 21.0461 10.6075 20.9565 10.6075 26.4034V35.4094C10.6075 35.4094 9.76921 40.8595 20.6193 40.8595H20.6194ZM26.0825 37.7104C25.8483 37.7106 25.6165 37.6645 25.4001 37.5746C25.1838 37.4848 24.9872 37.353 24.8217 37.1867C24.6561 37.0205 24.5248 36.8232 24.4353 36.606C24.3458 36.3887 24.2999 36.1559 24.3001 35.9209C24.2999 35.6858 24.3458 35.453 24.4353 35.2358C24.5248 35.0185 24.6561 34.8211 24.8216 34.6549C24.9872 34.4887 25.1837 34.3569 25.4001 34.267C25.6165 34.1771 25.8483 34.131 26.0825 34.1312C26.3166 34.131 26.5485 34.1771 26.7648 34.267C26.9811 34.3568 27.1777 34.4886 27.3433 34.6549C27.5088 34.8211 27.6401 35.0184 27.7296 35.2356C27.8191 35.4529 27.8651 35.6857 27.8648 35.9207C27.8651 36.1558 27.8191 36.3886 27.7296 36.6058C27.6401 36.823 27.5088 37.0204 27.3433 37.1866C27.1777 37.3528 26.9811 37.4846 26.7648 37.5745C26.5485 37.6643 26.3166 37.7105 26.0825 37.7103V37.7104Z" fill="url(#paint1_linear_405_1461)"/>
</g>
<defs>
<linearGradient id="paint0_linear_405_1461" x1="3.9534" y1="3.68574" x2="24.3012" y2="23.75" gradientUnits="userSpaceOnUse">
<stop stop-color="#387EB8"/>
<stop offset="1" stop-color="#366994"/>
</linearGradient>
<linearGradient id="paint1_linear_405_1461" x1="16.3937" y1="16.622" x2="38.2409" y2="37.1923" gradientUnits="userSpaceOnUse">
<stop stop-color="#FFE052"/>
<stop offset="1" stop-color="#FFC331"/>
</linearGradient>
<clipPath id="clip0_405_1461">
<rect width="41" height="41" fill="white"/>
</clipPath>
</defs>
</svg>
