<svg width="16" height="16" viewBox="0 0 16 16" fill="none" xmlns="http://www.w3.org/2000/svg">
<g id="Slider">
<path id="Vector" d="M12.36 6.0001L5.92002 2.30677C5.57154 2.10554 5.17602 2.00012 4.77362 2.00123C4.37121 2.00233 3.97627 2.10992 3.62891 2.31306C3.28154 2.5162 2.99412 2.80765 2.79585 3.15782C2.59758 3.50798 2.49551 3.90439 2.50002 4.30677V11.7201C2.50002 12.3248 2.74023 12.9047 3.16782 13.3323C3.5954 13.7599 4.17533 14.0001 4.78002 14.0001C5.18031 13.9994 5.57341 13.8937 5.92002 13.6934L12.36 10.0001C12.7061 9.79983 12.9934 9.51208 13.1931 9.16572C13.3928 8.81937 13.4979 8.42658 13.4979 8.02677C13.4979 7.62695 13.3928 7.23416 13.1931 6.88781C12.9934 6.54145 12.7061 6.25371 12.36 6.05343V6.0001ZM11.6934 8.79343L5.25335 12.5401C5.10901 12.6219 4.94593 12.6649 4.78002 12.6649C4.61411 12.6649 4.45103 12.6219 4.30669 12.5401C4.16275 12.457 4.04323 12.3375 3.96014 12.1935C3.87705 12.0496 3.83333 11.8863 3.83335 11.7201V4.2801C3.83333 4.1139 3.87705 3.95062 3.96014 3.80667C4.04323 3.66273 4.16275 3.5432 4.30669 3.4601C4.45162 3.37954 4.61422 3.33603 4.78002 3.33343C4.94571 3.33683 5.10811 3.38029 5.25335 3.4601L11.6934 7.1801C11.8373 7.26316 11.9569 7.38268 12.0401 7.52662C12.1232 7.67057 12.167 7.83387 12.167 8.0001C12.167 8.16633 12.1232 8.32963 12.0401 8.47357C11.9569 8.61752 11.8373 8.73703 11.6934 8.8201V8.79343Z" fill="#F9AD2B"/>
</g>
</svg>
