<svg width="15" height="16" viewBox="0 0 15 16" fill="none" xmlns="http://www.w3.org/2000/svg">
<g id="Rating" clip-path="url(#clip0_405_1924)">
<path id="Vector" d="M14.1666 7.49186C14.3215 7.3765 14.4363 7.21556 14.4951 7.03161C14.5539 6.84767 14.5536 6.64994 14.4943 6.46616C14.4351 6.28237 14.3198 6.12174 14.1646 6.0068C14.0094 5.89185 13.8222 5.82835 13.6291 5.82519L9.8791 5.68353C9.86066 5.68225 9.84299 5.67568 9.8282 5.66459C9.81342 5.6535 9.80215 5.63837 9.79577 5.62103L8.49993 2.12103C8.43483 1.94296 8.31657 1.7892 8.16119 1.68057C8.0058 1.57193 7.82078 1.51367 7.63118 1.51367C7.44159 1.51367 7.25657 1.57193 7.10118 1.68057C6.94579 1.7892 6.82754 1.94296 6.76243 2.12103L5.47077 5.63353C5.46438 5.65087 5.45312 5.666 5.43833 5.67709C5.42355 5.68818 5.40587 5.69475 5.38743 5.69603L1.63743 5.83769C1.44435 5.84085 1.2571 5.90435 1.10193 6.0193C0.946762 6.13424 0.831459 6.29487 0.772188 6.47866C0.712917 6.66244 0.712651 6.86017 0.771427 7.04411C0.830204 7.22806 0.945075 7.389 1.09993 7.50436L4.0416 9.81686C4.05632 9.82845 4.06733 9.84409 4.07325 9.86187C4.07917 9.87964 4.07976 9.89876 4.07493 9.91686L3.06243 13.5044C3.00997 13.687 3.01505 13.8815 3.07699 14.0611C3.13893 14.2408 3.25473 14.3971 3.40862 14.5086C3.56251 14.6202 3.74703 14.6816 3.93708 14.6846C4.12713 14.6875 4.31347 14.6319 4.47077 14.5252L7.5791 12.4419C7.59441 12.4313 7.61258 12.4256 7.63118 12.4256C7.64979 12.4256 7.66796 12.4313 7.68327 12.4419L10.7916 14.5252C10.9468 14.6355 11.1324 14.6948 11.3229 14.6948C11.5133 14.6948 11.6989 14.6355 11.8541 14.5252C12.008 14.4147 12.1239 14.2592 12.1859 14.0801C12.2478 13.9011 12.2527 13.7072 12.1999 13.5252L11.1791 9.92519C11.1737 9.90712 11.174 9.88782 11.18 9.86992C11.1859 9.85203 11.1973 9.83641 11.2124 9.82519L14.1666 7.49186Z" fill="#F9AD2B"/>
</g>
<defs>
<clipPath id="clip0_405_1924">
<rect width="15" height="15" fill="white" transform="translate(0 0.5)"/>
</clipPath>
</defs>
</svg>
