<svg width="25" height="24" viewBox="0 0 25 24" fill="none" xmlns="http://www.w3.org/2000/svg">
<g id="Container">
<path id="Vector" d="M18.5 2H8.5C7.43913 2 6.42172 2.42143 5.67157 3.17157C4.92143 3.92172 4.5 4.93913 4.5 6V18C4.5 19.0609 4.92143 20.0783 5.67157 20.8284C6.42172 21.5786 7.43913 22 8.5 22H18.5C19.0304 22 19.5391 21.7893 19.9142 21.4142C20.2893 21.0391 20.5 20.5304 20.5 20V4C20.5 3.46957 20.2893 2.96086 19.9142 2.58579C19.5391 2.21071 19.0304 2 18.5 2ZM6.5 6C6.5 5.46957 6.71071 4.96086 7.08579 4.58579C7.46086 4.21071 7.96957 4 8.5 4H18.5V14H8.5C7.79504 14.003 7.10399 14.1964 6.5 14.56V6ZM8.5 20C7.96957 20 7.46086 19.7893 7.08579 19.4142C6.71071 19.0391 6.5 18.5304 6.5 18C6.5 17.4696 6.71071 16.9609 7.08579 16.5858C7.46086 16.2107 7.96957 16 8.5 16H18.5V20H8.5ZM10.5 8H14.5C14.7652 8 15.0196 7.89464 15.2071 7.70711C15.3946 7.51957 15.5 7.26522 15.5 7C15.5 6.73478 15.3946 6.48043 15.2071 6.29289C15.0196 6.10536 14.7652 6 14.5 6H10.5C10.2348 6 9.98043 6.10536 9.79289 6.29289C9.60536 6.48043 9.5 6.73478 9.5 7C9.5 7.26522 9.60536 7.51957 9.79289 7.70711C9.98043 7.89464 10.2348 8 10.5 8Z" fill="#A5A5A5"/>
</g>
</svg>
