<svg width="20" height="21" viewBox="0 0 20 21" fill="none" xmlns="http://www.w3.org/2000/svg">
<g id="Container">
<path id="Vector" d="M14.9999 11.4834V8.83341C14.9987 7.65268 14.5797 6.51047 13.8171 5.60906C13.0545 4.70765 11.9975 4.1052 10.8333 3.90841V3.00008C10.8333 2.77907 10.7455 2.56711 10.5892 2.41083C10.4329 2.25455 10.2209 2.16675 9.99992 2.16675C9.7789 2.16675 9.56694 2.25455 9.41066 2.41083C9.25438 2.56711 9.16658 2.77907 9.16658 3.00008V3.90841C8.00237 4.1052 6.94536 4.70765 6.18274 5.60906C5.42012 6.51047 5.00111 7.65268 4.99992 8.83341V11.4834C4.51363 11.6553 4.09242 11.9735 3.79403 12.3942C3.49565 12.8149 3.3347 13.3176 3.33325 13.8334V15.5001C3.33325 15.7211 3.42105 15.9331 3.57733 16.0893C3.73361 16.2456 3.94557 16.3334 4.16659 16.3334H6.78325C6.97515 17.0396 7.39409 17.6629 7.97542 18.1074C8.55674 18.5518 9.26817 18.7926 9.99992 18.7926C10.7317 18.7926 11.4431 18.5518 12.0244 18.1074C12.6058 17.6629 13.0247 17.0396 13.2166 16.3334H15.8333C16.0543 16.3334 16.2662 16.2456 16.4225 16.0893C16.5788 15.9331 16.6666 15.7211 16.6666 15.5001V13.8334C16.6651 13.3176 16.5042 12.8149 16.2058 12.3942C15.9074 11.9735 15.4862 11.6553 14.9999 11.4834ZM6.66658 8.83341C6.66658 7.94936 7.01777 7.10151 7.6429 6.47639C8.26802 5.85127 9.11586 5.50008 9.99992 5.50008C10.884 5.50008 11.7318 5.85127 12.3569 6.47639C12.9821 7.10151 13.3333 7.94936 13.3333 8.83341V11.3334H6.66658V8.83341ZM9.99992 17.1667C9.70906 17.165 9.42373 17.0872 9.17228 16.941C8.92083 16.7948 8.71201 16.5853 8.56658 16.3334H11.4333C11.2878 16.5853 11.079 16.7948 10.8276 16.941C10.5761 17.0872 10.2908 17.165 9.99992 17.1667ZM14.9999 14.6667H4.99992V13.8334C4.99992 13.6124 5.08772 13.4004 5.244 13.2442C5.40028 13.0879 5.61224 13.0001 5.83325 13.0001H14.1666C14.3876 13.0001 14.5996 13.0879 14.7558 13.2442C14.9121 13.4004 14.9999 13.6124 14.9999 13.8334V14.6667Z" fill="white"/>
</g>
</svg>
